# xmcd
#
# Track frame offsets:
#	182
#	16760
#	33675
#	51175
#	68692
#	87520
#	108445
#	124362
#	140207
#	157712
#	174057
#	191145
#	207257
#	232445
#	250332
#	269195
#	287457
#	303882
#	322562
#
# Disc length: 4554 seconds
#
# Revision: 9
# Processed by: cddbd v1.5.2PL0 Copyright (c) Steve Scherf et al.
# Submitted via: audiograbber 1.83.01
#
DISCID=1211c813,f811c813
DTITLE=Touch My Soul (The Finest Of Black Music Vol. 14) CD 1 - Touch My Soul (
DTITLE=The Finest Of Black Music Vol. 14) CD 1
DYEAR=1999
DGENRE=R&B
TTITLE0=Q Connection - Java (all da ladies come around)
TTITLE1=Lamar - Fly (the lonely shepherd)
TTITLE2=TQ - Westside
TTITLE3=Cunnie Williams - Saturday
TTITLE4=Another Level feat. Jay-Z - Be alone no more '99
TTITLE5=Lynden David Hall - Sexy Cinderella
TTITLE6=Rappers Against Racism - Sorry
TTITLE7=G's Incorporated - Who's knockin'?
TTITLE8=Brooke Russell feat. Mr. Gentleman - So sweet
TTITLE9=Emel - Everything
TTITLE10=Elisha - Elisha is not at home
TTITLE11=January - One love
TTITLE12=Pauline Taylor - The letter
TTITLE13=E-17 - Each time
TTITLE14=Noreaga - Superthug
TTITLE15=Walkin' Large feat. Brixx - Boy meets world
TTITLE16=2-4 Family - Lean on me (with the family)
TTITLE17=Dru Hill feat. Redman - How deep is your love
TTITLE18=Deborah Cox - Nobody's supposed to be here (dance mix)
EXTD=
EXTT0=
EXTT1=
EXTT2=
EXTT3=
EXTT4=
EXTT5=
EXTT6=
EXTT7=
EXTT8=
EXTT9=
EXTT10=
EXTT11=
EXTT12=
EXTT13=
EXTT14=
EXTT15=
EXTT16=
EXTT17=
EXTT18=
PLAYORDER=
